<svg width="1124" height="1211"  fill="none" xmlns="http://www.w3.org/2000/svg"><g clip-path="url(#a)"><g filter="url(#b)"><path d="M0 1211V517l545.998 371.774a28 28 0 0 0 31.508.007L1124 517v694H0z" fill="#fff"/></g><g filter="url(#c)"><path d="M539.324 768.356c10.229-8.371 24.919-8.448 35.236-.186L663 839H453l86.324-70.644z" fill="#fff"/></g><g filter="url(#d)"><path d="M538.343 768.46c10.247-8.423 24.997-8.501 35.332-.187L1124 1211H0l538.343-442.54z" fill="#fff"/></g></g><defs><filter id="b" x="-16" y="485" width="1156" height="726" filterUnits="userSpaceOnUse" color-interpolation-filters="sRGB"><feFlood flood-opacity="0" result="BackgroundImageFix"/><feColorMatrix in="SourceAlpha" values="0 0 0 0 0 0 0 0 0 0 0 0 0 0 0 0 0 0 127 0" result="hardAlpha"/><feOffset dy="-16"/><feGaussianBlur stdDeviation="8"/><feComposite in2="hardAlpha" operator="out"/><feColorMatrix values="0 0 0 0 0 0 0 0 0 0 0 0 0 0 0 0 0 0 0.25 0"/><feBlend in2="BackgroundImageFix" result="effect1_dropShadow_115_235"/><feBlend in="SourceGraphic" in2="effect1_dropShadow_115_235" result="shape"/></filter><filter id="c" x="437" y="730.025" width="242" height="108.975" filterUnits="userSpaceOnUse" color-interpolation-filters="sRGB"><feFlood flood-opacity="0" result="BackgroundImageFix"/><feColorMatrix in="SourceAlpha" values="0 0 0 0 0 0 0 0 0 0 0 0 0 0 0 0 0 0 127 0" result="hardAlpha"/><feOffset dy="-16"/><feGaussianBlur stdDeviation="8"/><feComposite in2="hardAlpha" operator="out"/><feColorMatrix values="0 0 0 0 0 0 0 0 0 0 0 0 0 0 0 0 0 0 0.25 0"/><feBlend in2="BackgroundImageFix" result="effect1_dropShadow_115_235"/><feBlend in="SourceGraphic" in2="effect1_dropShadow_115_235" result="shape"/></filter><filter id="d" x="-8" y="750.089" width="1140" height="464.911" filterUnits="userSpaceOnUse" color-interpolation-filters="sRGB"><feFlood flood-opacity="0" result="BackgroundImageFix"/><feColorMatrix in="SourceAlpha" values="0 0 0 0 0 0 0 0 0 0 0 0 0 0 0 0 0 0 127 0" result="hardAlpha"/><feOffset dy="-4"/><feGaussianBlur stdDeviation="4"/><feComposite in2="hardAlpha" operator="out"/><feColorMatrix values="0 0 0 0 0 0 0 0 0 0 0 0 0 0 0 0 0 0 0.25 0"/><feBlend in2="BackgroundImageFix" result="effect1_dropShadow_115_235"/><feBlend in="SourceGraphic" in2="effect1_dropShadow_115_235" result="shape"/></filter><clipPath id="a"><path fill="#fff" d="M0 0h1124v1211H0z"/></clipPath></defs></svg>